<svg xmlns="http://www.w3.org/2000/svg" viewBox="0 0 58.35 58.33"><defs><style>.cls-1{fill:#ffdc25;}.cls-2{fill:#c9a718;}.cls-3{fill:#edc10a;}</style></defs><g id="Layer_2" data-name="Layer 2"><g id="Layer_1-2" data-name="Layer 1"><path class="cls-1" d="M17.68,37.18c0-.15,0-.3,0-.45v.44Z"/><polygon class="cls-2" points="45.12 0 13.22 0 0 0 0 0 0 13.22 0 45.11 0 58.33 0 58.33 13.22 58.33 45.12 58.33 58.33 58.33 58.33 58.33 58.33 45.11 58.33 13.22 58.33 0 58.33 0 45.12 0"/><path class="cls-1" d="M58.31,41.24c0-.15,0-.29,0-.44v.43Z"/><path class="cls-1" d="M58.33,39.33v-.86A5.94,5.94,0,0,1,58.33,39.33Z"/><path class="cls-1" d="M0,0H0V40.46A13.22,13.22,0,0,0,13.22,53.67h2.4A57.14,57.14,0,0,0,29,52.12c14.36-3.45,28.66-10.57,29.28-10.88h0c0-.15,0-.29,0-.44V0H0Z"/><g id="Hl8wU3"><path d="M15,19.07c0,.07.09.19-.09.17,0,0-.07.1-.08.16s0,.28-.07.42-.06.17,0,.22.14,0,.22.05a.58.58,0,0,0,.16-.05L15,19.7l.06,0c.22-.3.4-.62.65-1l.21.2c0-.18-.15-.33-.29-.51l.17-.05c-.12-.17.24-.43-.13-.56l-.13.13.18.23-.2.12c-.05-.09-.14-.17-.15-.27a.35.35,0,0,1,.09-.25c0-.05.1-.07.16-.1s.05,0,.08,0c.32-.08.32-.08.28.25l.57.21.06-.22c-.25-.11-.25-.17,0-.36-.11-.14-.11-.14-.6,0a.62.62,0,0,0,0-.19,1.07,1.07,0,0,0-.09-.19.16.16,0,0,1,.25-.05.33.33,0,0,0,.4,0s.08-.05.08-.07c0-.28.23-.43.31-.66,0,0,0,0,0,0,.27.06.26-.28.43-.3a2.7,2.7,0,0,1,.14.4c0,.06,0,.12,0,.19l-.21-.13v-.07l-.18.1.15.19h0l.23.13a1.08,1.08,0,0,1-.18.24.51.51,0,0,0-.14.56c-.24.26-.48.53-.73.79a.26.26,0,0,1-.16.07c-.19,0-.22,0-.17.2a.47.47,0,0,1-.43.55c.07.11.15.22-.06.24,0,0,0,.06,0,.1s-.11.32-.18.48-.08.07-.12.1l0,0a.63.63,0,0,1-.1.2,1.07,1.07,0,0,0-.21.64c0,.05,0,.11,0,.16-.07.26-.14.52-.22.78a.85.85,0,0,1-.14.21c.21.05.08.25.08.39a5.19,5.19,0,0,0,0,.56c0,.17,0,.3-.14.41s0,.19,0,.26.15.08.27.08l.1.39-.44-.13c-.09.06-.15.14,0,.27s0,.11,0,.13l.34.28,0-.05-.05-.2.05,0,.12.18s0,0,0,0l.24.27.22-.23c-.45-.16-.16-.5-.24-.77l.2-.08c-.08,0-.18-.08-.21-.14a.43.43,0,0,1,0-.25s.1,0,.2-.07l-.12-.28c-.06-.14-.08-.26.08-.37s.1-.31.13-.47c.05-.34.09-.68.15-1a.16.16,0,0,1,.1-.11c.19-.05.16-.16.12-.29s0-.06,0-.07c.17-.17,0-.39.12-.57a.34.34,0,0,1,.08-.09l.05.08c.25-.3.21-.71.35-1l.41-.13L16.62,19l.24-.54.09.32H17l0-.35h-.2l.35-.36s.06.09.09.12a.25.25,0,0,0,.09,0s.07-.09.05-.11c-.1-.24.06-.21.21-.2a2.06,2.06,0,0,1,.23-.41s.14,0,.23,0l0-.29h.17a.39.39,0,0,0,.34-.19c.12-.19.28-.42.58-.37a.84.84,0,0,1,.47-.47,1.65,1.65,0,0,0,.32-.28,1.5,1.5,0,0,1,.23-.2c.23-.14.23-.15.14-.46l.29.11.05-.36s.05,0,.06.05c.11.28.1.28.34.11l.4-.26s0-.08,0-.12a.27.27,0,0,0-.12,0c-.05,0-.08.07-.14.13-.11-.17-.26-.26-.45-.12l-.38.31,0,.06-.17-.15c0,.11,0,.18,0,.25s-.06.21-.22.16a1.31,1.31,0,0,0-.34,0s-.06.09-.09.13a.61.61,0,0,0,.14.07l.19,0,0,.05-.18.2v0H19.5c0-.13,0-.27,0-.41,0-.29,0-.29-.25-.29a2.43,2.43,0,0,1,0-.27s0-.08.07-.07.09,0,.13.06l.38-.27,0,.35a1.33,1.33,0,0,0,.19-.3,1.37,1.37,0,0,0,.05-.34c.15.14.24.25.34,0s.24-.11.38-.16c0,.12.17.28-.07.39,0,0,0,.05,0,.09s.09,0,.1,0a2.22,2.22,0,0,0,.17-.18l.35,0L21.18,14l.51-.14h.06c.05-.2.18-.09.29-.08h0l-.18.08c0,.18.06.2.3.12a1.83,1.83,0,0,0,0,.21c0,.05,0,.12,0,.13a.18.18,0,0,0,.16,0,2.25,2.25,0,0,0,.51-.22L22.43,14l-.11.14c-.07-.24-.06-.26.15-.26,0,0,.1,0,.1,0,0-.21.19-.25.33-.32s.09-.1.14-.15l.33.32-.28.27.34.07.07-.11,1,0-.08-.19,0,0a.64.64,0,0,0,.57-.05s.18.1.29.16l0-.17.92.13-.11.19,0,0,.3-.14c.07.22.2.39.48.28a1.17,1.17,0,0,0-.16.27s.07.11.16.14l0-.18h.44l0,.06.11-.29a.68.68,0,0,1,.19,0,4.37,4.37,0,0,1,.55.32c.12.08.15.28.36.25,0,0,.1.09.14.15l.29.37.12-.1.08.14c.13-.08.22-.12.35,0a.84.84,0,0,0,.44.12c.14,0,.29.08.4-.1s.1,0,.16-.06l.27-.08,0,.19c.06,0,.12-.08.12-.11,0-.39.34-.52.59-.71a2.87,2.87,0,0,1,.49-.26,3.38,3.38,0,0,0,.83-.46c0-.05.12-.05.15-.11l.12-.16c.05,0,.14.08.14.12s.09.17.18.13.11-.13.15-.2,0-.18,0-.19a.46.46,0,0,1,.28,0c.16.06.25,0,.32-.1l.4.06,0-.16a.64.64,0,0,0,.5-.17c.1-.11.33-.1.51-.12H36V13H35.8c0,.19.13.19.21.24a1.45,1.45,0,0,1,.37-.27c.12,0,.33-.19.35.14.14-.17.28-.23.45-.12.22-.19.23-.19.43,0,.06,0,.13.08.2.13l0,0L37.77,13s.1,0,.11-.05c.09-.2.16-.25.24,0,0,0,.11,0,.12,0s.16-.07.26,0a1.28,1.28,0,0,0,.28.07l.09,0c.14.16.14.16.35.13,0-.06,0-.12,0-.18l0,0a.4.4,0,0,0,.07.13.33.33,0,0,0,.14.1,4,4,0,0,0,.5,0l-.09-.15a1.1,1.1,0,0,1,.26-.15.19.19,0,0,1,.17.07c.08.22.18.41.44.46a.11.11,0,0,1,.08.08c0,.24.14.22.29.24a.41.41,0,0,1,.71,0,.53.53,0,0,0,.12.1c.09,0,.14.07.07.18s0,.15.17.23l-.08.12.62.17v.06l.1-.14h.06v.39c.18.11.55.1.58.49a.51.51,0,0,1,.4.32,2.39,2.39,0,0,0,.31.42s.06,0,.07,0c.06.26.43.38.31.74l.21,0c0,.14.24.17.1.36a1.75,1.75,0,0,0-.16.36c.16.18.3-.09.53-.14,0,.12,0,.21,0,.3s0,.21,0,.25.14.27.09.45l.27-.16.09.39-.36.1c-.12,0-.13.06,0,.16a3.46,3.46,0,0,1,.28.4l.14-.08s0,.06,0,.07c-.15.25-.13.34,0,.59a1.12,1.12,0,0,1,.18.4s0,.11-.09.14-.32.16-.15.41a2.32,2.32,0,0,1,.19.63l-.13,0a.56.56,0,0,1,.14.6l-.1,0L45.62,22c0,.07-.07.15,0,.21s.11.19,0,.32,0,.22,0,.33a1.53,1.53,0,0,1-.07.29.84.84,0,0,1,.31.05s0,.16,0,.23l-.39,0,.17.21c-.08,0-.15.07-.2.05a.42.42,0,0,1-.18-.17.59.59,0,0,1-.07-.2h-.1l-.14.56c-.16,0-.18.11-.12.27a.17.17,0,0,1,0,.17c-.28.26-.22.63-.31,1s-.13.51-.2.76-.21.68-.32,1a.61.61,0,0,1-.07.1c-.19.13-.19.35-.23.54s0,.23.15.18c0,0,.08.08.11.13a1,1,0,0,1,.07.17l.21-.17a.38.38,0,0,1,0-.47s0-.1,0-.16,0-.12,0-.13c.21-.13.13-.3.09-.47a.25.25,0,0,1,.19-.3c.08-.35.15-.69.23-1s.14-.5.21-.75.17-.62.26-.92l.29,0,0,0-.23.1.27.19c0,.15-.14.09-.26,0l0,.06c.09.06.21.09.25.17s0,.21,0,.32l-.16,0c-.1.1-.22.17-.23.25s-.23.37.05.51c0,0,0,0,0,.08l-.15.05s-.11,0-.12.07,0,.1,0,.12c.19.09.15.25.06.37a1.31,1.31,0,0,0-.17.55,1.12,1.12,0,0,1-.33.72.31.31,0,0,0,0,.25c.07.17,0,.19-.16.19a.33.33,0,0,1-.13.46c-.21.17-.33,0-.55,0l.19.14c.17.13.13.31.08.5s-.4.4-.32.72a.3.3,0,0,1,0,.11,5.19,5.19,0,0,1-.31.5c-.05.07-.17.09-.23.12a1.41,1.41,0,0,1-.18.29.37.37,0,0,0-.1.48h-.15l-.42.44.14.06c0,.05-.06.1-.1.11-.22.05-.31.25-.42.4a.64.64,0,0,0-.1.56,1,1,0,0,1,0,.18l-.07,0-.2-.3a1.22,1.22,0,0,1-.85,1.12c0,.15,0,.28,0,.4a3,3,0,0,1-.08.32H40.4l-.06-.16-.23.24.26,0-.19.24c-.21-.14-.23-.13-.34.1,0,.05-.09.07-.14.1a3.32,3.32,0,0,0-.37.23s0,.12,0,.21c-.21,0-.24.2-.32.34a.2.2,0,0,1-.25.12l.07-.16s0,0,0,0-.19.11-.19.17a.2.2,0,0,1-.16.22c-.06,0-.1.1-.14.15l.15.08.15,0-.34.21.06-.21,0,0-.11.1a2.53,2.53,0,0,1-.66.6s0,.15-.08.24h-.16c0,.37-.38.82-.66.79l.1.16c-.07,0-.15.09-.22.15s-.17.1-.15.25a.31.31,0,0,1-.27.3L36,38.69l.06,0a.71.71,0,0,0,.14-.1s0-.08,0-.07-.13,0-.15.08-.11.27-.16.41a1,1,0,0,1-.07.18c-.12.16-.23.32-.35.47a3.1,3.1,0,0,1-.27.31c-.23.06-.29.17-.24.47,0,0,0,0,0,0s.05.19.08.18,0-.11.06-.17a2.07,2.07,0,0,1,.19-.32c0-.08.11-.15.17-.23.16.11.17.22,0,.47s-.26.39-.39.59c-.21-.2-.31-.2-.69,0,0-.26-.16-.35-.34-.46,0,0,0,.07,0,.08.16.21.18.51.46.63a.24.24,0,0,1,.08.15s-.07.09-.1.09-.08-.06-.13-.09l-.3-.19,0-.34H34a2.09,2.09,0,0,0,0,.43c0,.05.11.09.2.17,0,.24,0,.36-.29.37l.15-.24a.28.28,0,0,0-.34.18.38.38,0,0,1-.15.25c-.12.08-.27.16-.35,0l-.74.24a.21.21,0,0,0-.11.07.78.78,0,0,1-.59.49l-.06.06-.4.23L31.14,43a1.45,1.45,0,0,1,.09-.25c.07-.15.11-.28,0-.42s-.26-.15-.35,0a.63.63,0,0,1-.32.28.84.84,0,0,0-.29.25c-.08.09-.16.1-.24,0s-.19-.09-.28,0l-.52.49c-.09.08-.17.12-.27,0a.2.2,0,0,1-.07-.28c.06-.15.11-.23.3-.22s.26-.12.35-.23a1.25,1.25,0,0,0,.15-.37c-.46,0-.79-.33-.69-.59a1.58,1.58,0,0,1-.38,0s0-.15-.07-.23-.21-.4-.39-.06a3.49,3.49,0,0,1-.34-.15s0-.08,0-.12a1.44,1.44,0,0,0,.08-.25c0-.06-.06-.13-.09-.19a1.09,1.09,0,0,0-.17.13s-.09.12-.15.12L27,40.82a.2.2,0,0,1-.09-.09c-.22-.53-.17-.36-.63-.31l.07-.29-.05,0-.1.12-.74-.35a.13.13,0,0,1-.07-.08c0-.06.08-.11.12-.18l.21.27.35-.27c-.2-.16-.36-.27-.55-.08a.19.19,0,0,1-.13,0s-.07,0-.09,0c-.22.06-.38,0-.37-.25,0,0-.09,0-.11,0s-.12.09-.18.13l-.06,0a1,1,0,0,1,.13-.31c.12-.14.13-.2,0-.29a2.5,2.5,0,0,0-.26-.07l0,.07.21.14c-.06,0-.11.14-.17.15s-.34-.06-.36-.18l.2,0c0-.06,0-.12,0-.16s-.07-.09-.11-.09c-.19,0-.32-.07-.34-.28,0,0-.09-.07-.12-.06s-.19,0-.15-.14a.42.42,0,0,0,0-.16h-.17c-.08-.31-.38-.24-.57-.35a1,1,0,0,0-.23-.08l.07-.31-.05,0L22.5,37l.17-.08c-.07-.15-.08-.15-.25,0l-.28-.06-.32-.33-.07.06.54.72-.08.07-.36-.25,0,0-.24,0a2.26,2.26,0,0,0,.08-.3c0-.12,0-.24-.17-.19s-.28,0-.34-.19l-.08-.07.09.3L21,36.53l-.09.22-.09-.07a1.49,1.49,0,0,1,0-.21c0-.19.13-.4.07-.56s-.28-.2-.43-.3l0,0,.23.58-.25,0c0-.15,0-.3-.19-.17-.06,0-.16,0-.24-.05v-.06a.83.83,0,0,1,.15,0c.13,0,.13,0,.1-.13s.05-.16.08-.25c-.29,0-.32,0-.42-.41l-.31-.2-.1.13a.75.75,0,0,1,0-.23.15.15,0,0,1,.1-.09c.07,0,.17.08.18-.06s-.14-.05-.22-.07h-.06l0-.26-.41.52-.29-.12c0-.14.11-.34,0-.5,0,0,0-.05,0-.06a.06.06,0,0,1,.07,0l.08.16c.12-.09.07-.2,0-.28s-.27-.14-.43,0l-.68-1L18,33l-1.29-1.1.05-.08.31.16.14-.09c-.13-.29-.17-.32-.46-.28a.39.39,0,0,1-.18,0l-.33-.17-.15-.56.31,0,0-.14c-.27-.07-.59.05-.79-.22l.17-.29a1.73,1.73,0,0,1-.42-.25c-.1-.11-.25-.26-.1-.46l-.25-.11c0-.26-.12-.39-.42-.3a3,3,0,0,1,.11-.29c0-.07.05-.14.07-.21l-.2,0-.06-.28c.1,0,.3.07.24-.18,0-.08-.11-.14-.16-.21l-.16-.26.07-.05.14.12c.08,0,.09-.25.28,0v-.81c-.16,0-.22-.18-.27-.35a.14.14,0,0,0-.11-.07,2.3,2.3,0,0,0-.37,0c-.06-.19,0-.32.12-.37s.19,0,.29,0l0,0c.27.08.31.16.17.41l.31.19L15,26a.45.45,0,0,1,.24-.5,1.12,1.12,0,0,0-.23-.06c-.15,0-.19,0-.13-.17a.22.22,0,0,0,0-.19,2,2,0,0,0-.26-.21c0,.09,0,.18,0,.26a.36.36,0,0,1,0,.18c-.08.15,0,.25.16.29,0,.11,0,.21.06.33-.22.05-.14-.15-.19-.21l-.35.21c0-.29-.22-.48-.12-.76,0-.1-.06-.24-.09-.36a.94.94,0,0,1,0-.16,1.53,1.53,0,0,0,0-.37c-.06-.16,0-.22.14-.27a1,1,0,0,0,.16-.1c0-.1-.22-.16,0-.32h-.11l-.14.32h0a3,3,0,0,1,0-.52c0-.15,0-.22-.16-.23l0-.72h.2A.42.42,0,0,1,14,22.3a.28.28,0,0,0-.19-.25c-.13-.05-.13-.3,0-.4a2.69,2.69,0,0,0,.22-.31,1,1,0,0,0,.06.18,1,1,0,0,0,.22.16l-.35.06c0,.05.09.12.11.11.22-.05.2.12.22.24a.9.9,0,0,0,.06.25,1,1,0,0,0,.06-.16c0-.19.07-.37.11-.56s.12-.25,0-.41.09-.17.16-.24.14,0,.19-.07-.1-.23-.13-.35,0-.25,0-.38l-.26.27,0-.39.23-.27-.26-.26.21-.15.07-.08-.24-.07.07-.07.12.07.19-.31.08-.06.11.22Zm9.81,16.52a.4.4,0,0,1,.47.18s.06.07.09.07l.41,0c.07.1.13.23.2.24s.08.2.16.28-.07.09-.09.13a1,1,0,0,0-.24-.09s0,.08,0,.07l.14.17a1,1,0,0,0,.23.18,1.77,1.77,0,0,0,.33.08l.13,0c.08,0,.19,0,.24,0s0,.15,0,.28l.48,0,0,.18a.57.57,0,0,1,.18,0,.31.31,0,0,1,.14.09l.23.21,0,0,0,.21-.21.13.34,0c.09-.06.19-.17.23-.15a2.08,2.08,0,0,1,.34.3l-.41.08,0,.06c.57-.13.86.24,1.19.54l0,.05h.22l-.05.17.17.37c.18-.06.37,0,.36.1l-.19,0a.87.87,0,0,1,.28.61.55.55,0,0,1-.33.62c-.15,0-.2.16-.15.26s.18.1.28.13.13,0,.15,0c.18.15.22,0,.28-.11l0,0,0,.09.52-.4c.1,0,.19.05.23-.11s.13-.28.38-.21a.33.33,0,0,0,.17,0l.23-.14-.22-.07.71-.71a.09.09,0,0,1,0,0c.16,0,.19-.13.22-.25a.32.32,0,0,1,.09-.16c.19-.21.39-.41.6-.61s.27-.19.43-.31A.48.48,0,0,1,34,37.9c.35-.4.71-.79,1.08-1.19s.51-.52.75-.8.56-.71.83-1.07l.19-.27a2,2,0,0,1,.2-.3l.42-.52s0-.08,0-.11,0-.09,0-.11.36-.31.54-.46L38,33l-.22.06c-.08-.23.29-.27.25-.49,0,0,.05-.06.05-.07l.1.25a1.24,1.24,0,0,0,.19-.21.76.76,0,0,0,.08-.33c0-.28,0-.3.29-.39s.29-.18.28-.26.13-.4-.1-.48L39,30.8c.08-.21.24-.22.46-.13-.06-.17-.15-.29-.14-.41s.13-.23.18-.35,0-.27.11-.29l.14.3c.18-.1.26-.19.13-.36a.26.26,0,0,1-.06-.2,3.06,3.06,0,0,1,.31-.38l.14.29c-.32-.53-.34-.79,0-.95l-.11.26,0,0c.06-.05.15-.09.16-.15s.1-.28.34-.23c0-.08-.05-.14-.09-.16s-.08,0-.11,0-.18.06-.19-.06,0-.2.07-.2a.76.76,0,0,1,.25.06l0,.08c.05-.06.13-.11.14-.17a.4.4,0,0,0-.07-.2c0-.08-.11-.15-.1-.21s.11-.14.16-.21l0,0v-.36l.19-.09.09.27.2-.28-.18-.59.19,0a3.2,3.2,0,0,0,.06-.51c0-.3,0-.31.3-.39l-.1-.2s-.07-.1,0-.14c.06-.19.14-.37.22-.56a.94.94,0,0,0,.06-.15c0-.12,0-.24.08-.36h0l-.08-.2c.2,0,.29-.08.28-.29s.06-.23-.09-.29a.15.15,0,0,1,0-.08c0-.3,0-.6,0-1,.16.14.3.21.23.4s-.1.26-.15.39a.58.58,0,0,0,0,.19c.05,0,.12,0,.16-.08s.17-.13.12-.27.05-.1.08-.15L42.8,22s0,0,0-.06,0-.21.05-.32S43,21.24,43,21s0-.63,0-1a.37.37,0,0,0-.05-.17.26.26,0,0,1,.05-.4s0-.09.09-.17l-.16.06a1.37,1.37,0,0,1-.13-.31c0-.11,0-.23,0-.34s0-.08,0-.09c-.29-.19-.2-.52-.29-.78s0-.33-.22-.42a.46.46,0,0,1-.15-.16c-.11-.15-.21-.3-.31-.46a1.57,1.57,0,0,1-.09-.23l.06,0a.89.89,0,0,0-.19-.07.56.56,0,0,1-.51-.32q-.09-.17-.21,0l.16.1,0,.05c-.06,0-.15,0-.17-.05a.44.44,0,0,1-.06-.23c0-.08,0-.22-.07-.24a1.29,1.29,0,0,0-.36-.06l0,.18c-.11.07-.18.07-.24,0l-.25-.48a1.19,1.19,0,0,1-.36,0,1.46,1.46,0,0,1-.45-.27c-.12-.11-.18-.05-.26,0l.19.29-.06,0-.18-.11.12.3c.11-.09.22-.24.32-.24s.17.18.26.29l-.18.1a.37.37,0,0,1,0,.11c0,.06,0,.12,0,.18a.67.67,0,0,1-.15-.06l-.52-.39a2.09,2.09,0,0,0-.92-.45h-.19l-.25-.05c-.07,0-.15-.08-.21-.07s-.08.12-.13.21a.38.38,0,0,0-.12-.09c-.07,0-.21-.05-.22,0s-.25.07-.36.13a1.21,1.21,0,0,1-.3,0c-.16-.14-.21-.13-.33.09,0,.05-.11.07-.17.11v-.06l-.36-.17-.08.26a2.41,2.41,0,0,0-.25.11c-.34.14-.7.27-1,.43s-.69.43-1.05.61A8.37,8.37,0,0,0,32,18.12s-.09.06-.13.08-.11.06-.13.1-.07.35-.31.35c0,0,0,0,0,.05a4.36,4.36,0,0,1-.23.42c0,.08-.14.13-.17.21-.12.3.15,1-.15,1-.05,0-.1-.06-.14-.1a.87.87,0,0,1-.07-.17h-.05l-.09.17c-.06.08-.11.2-.18.21a.82.82,0,0,0-.41.32.29.29,0,0,1-.13.08.47.47,0,0,1,0-.17c0-.09.06-.17.07-.25l.06-.94a.12.12,0,0,0-.05-.08l-.2-.18c-.25.09,0,.3-.07.47l-.15-.16c-.24-.19-.09-.85-.1-1.16-.1,0-.19.09-.25.07A5.93,5.93,0,0,1,28,16.9c0-.09-.07-.08-.16-.09s-.25,0-.35-.13-.22-.15-.35-.22-.34-.1-.42-.21-.43-.16-.63-.27a1.53,1.53,0,0,0-.49-.08c-.32,0-.64-.1-1-.1a9.59,9.59,0,0,0-1.06.07,4.92,4.92,0,0,0-.76.09c-.29.08-.57.21-.86.31a5,5,0,0,0-.82.29c-.27.15-.55.28-.83.43a4.34,4.34,0,0,0-1.35,1c-.51.63-1,1.29-1.49,1.94A2.59,2.59,0,0,0,17,21.39c0,.3,0,.61-.09.91a11.53,11.53,0,0,0-.23,1.86,1.09,1.09,0,0,0,0,.18c0,.22.06.43.09.66l.1,0c-.21.33-.1.42.08.57a.32.32,0,0,0,0,.5.76.76,0,0,1,.11.14,3.19,3.19,0,0,1,.19.48,2.56,2.56,0,0,1,0,.39v0l.17-.1c0,.17.12.34-.15.33,0,0-.05.07-.08.14.49-.12.58.15.45.52h.08l.19-.08c0,.08,0,.15,0,.22a.38.38,0,0,0,.31.42.68.68,0,0,0,.09.17c.09.1.19.18.11.34s.07.12.11.12a.53.53,0,0,1,.44.34c.12.22.16.49.44.6.06,0,.08.13.12.2s0,.1.05.11c.34.12.42.48.65.71s.13.22.23.27a3,3,0,0,1,.83.84l.28.36a1.37,1.37,0,0,0,.3.29,5.17,5.17,0,0,0,.63.25c-.18.18,0,.29.09.44l-.17.08.12.24c0-.07.05-.13.1-.17a2.27,2.27,0,0,1,.27-.24l.5.42,0,.07-.13,0c-.06-.05-.15-.15-.18-.14s0,.17,0,.26l0,.07.23,0c-.19.25.05.29.13.45a1,1,0,0,1,.15-.22,1.55,1.55,0,0,1,.22-.12l.28.27c-.11,0-.18.2-.3,0,0,0-.09.08-.08.11a.3.3,0,0,0,.12.15s.09,0,.14-.07l.23,0a2.09,2.09,0,0,1,0,.25s-.06.06-.11.1l.18.08.09-.3.22.1a1.54,1.54,0,0,1,.31.25s0,.14-.06.22A1.09,1.09,0,0,0,24.84,35.59Zm-5.93-2.77c-.09-.11-.21-.21-.22-.31s-.16-.27-.28-.37a1.3,1.3,0,0,1-.34-.32,2.12,2.12,0,0,1-.2-.6.82.82,0,0,0-.35-.64s-.06,0-.06-.08c0-.26-.15-.33-.4-.34l.12-.68-.46,0c.19-.19.19-.22,0-.41,0,0,0-.08,0-.12l.1,0,.15,0c-.3-.08-.34-.24-.21-.46-.18.16-.33.2-.52.07l.13-.16c-.21-.16.12-.31,0-.48h-.16c.17-.46.17-.47-.09-.51,0,0,0-.13,0-.15-.21-.21-.12-.48-.13-.72s.07-.52-.15-.74c.12-.11.19-.21,0-.34a.17.17,0,0,1,0-.17.38.38,0,0,0,0-.46.11.11,0,0,1,0-.08c0-.34.07-.68.1-1,0,0-.14,0-.16,0a.23.23,0,0,1,0-.2c0-.1.07-.2-.11-.27a1.62,1.62,0,0,1,0,.33,4,4,0,0,0-.14,1.19,2.31,2.31,0,0,1-.08.43c.12,0,.1.13.1.25a8.86,8.86,0,0,0,.29,2.23,1.56,1.56,0,0,1,.12.55c0,.34.23.57.29.87,0,0,.09,0,.18.08a1.45,1.45,0,0,1-.12-.28s0-.15.07-.15a.59.59,0,0,1,.22.05.37.37,0,0,1,0,.15s-.05.1,0,.12c.15.19,0,.22-.14.25l0,.4.14.08-.12.27.05,0,.1-.18.51.69-.06.05-.16-.14,0,0c.13.12.11.35.35.39a.2.2,0,0,1,.08.15.22.22,0,0,0,.13.3.55.55,0,0,1,.2.17c.22.3.43.61.64.92l.08,0a.45.45,0,0,1,.36.4c0,.16.13.24.33.2C18.83,33,18.83,32.93,18.91,32.82Zm.55-.92c-.1.18-.07.22.16.25a.22.22,0,0,1,.14.13,1.53,1.53,0,0,1,.1.34.67.67,0,0,1,.27.06c.26.25.51.51.76.78a.15.15,0,0,1,0,.16c-.12.15,0,.18.09.26a.13.13,0,0,0,0-.07.94.94,0,0,0,0-.16l.15.09a4.11,4.11,0,0,1,.3.29c.12.13.22.26.34.41s.08,0,.1,0,.29.27.44.4.28.21.43.32.07.05.11.07.22,0,.28.11a1,1,0,0,1,.18.31h-.27l-.33,0c0,.11,0,.12.21.17l.1-.16a.53.53,0,0,0,.58,0l.12,0a.35.35,0,0,1,0,.11l-.28.29.31.08a.47.47,0,0,0,.17,0,.49.49,0,0,0-.11-.14s-.06,0-.09,0v0l.35-.07-.19-.59-.07.21c-.08,0-.16-.08-.21-.06s-.27-.06-.36-.2-.11-.18-.17-.18c-.23,0-.27-.12-.24-.3-.21-.15-.58-.08-.57-.47l-.21,0,0-.17-.06,0c0-.08-.08-.15-.11-.23s-.09-.15-.2-.06l-.17.08-.07,0c.17-.19.07-.3-.06-.43A4.29,4.29,0,0,1,21,32.9l.1-.19c-.17,0-.31.09-.46.11a.49.49,0,0,1-.19-.07.56.56,0,0,0,0-.07l.18,0-.23-.21.31-.09,0-.09-.31,0c-.06,0-.16.07-.17.06a1,1,0,0,1-.12-.23s0-.08,0-.12l-.2,0,0,0,.14-.12-.37-.17.15-.29h-.07a2,2,0,0,0-.09-.22c0-.05-.11-.15-.13-.14-.2.07-.36,0-.56-.08.05-.2-.08-.25-.26-.25,0-.14-.14-.25,0-.4s0-.09-.08-.13-.11-.1-.17-.16l-.06,0-.26-.07,0,.06c.09.14.16.28.26.41s.29.21.3.32.23.26.26.44.08.06.12.06l.46-.13,0,.26-.07,0a.78.78,0,0,0-.26.17.23.23,0,0,0,0,.23S19.38,31.89,19.46,31.9ZM42.75,25l-.28,0c-.23.16-.13.41-.17.63,0,0,0,0,0,0-.21.07-.16.29-.24.44a2.51,2.51,0,0,0-.16.57.18.18,0,0,0,.06.14s.09,0,.1,0a1.4,1.4,0,0,0,.21-.4,1.78,1.78,0,0,1,.35-.7s0-.14,0-.16-.06-.18,0-.21S42.77,25.1,42.75,25Zm-.19,5.65c0-.06,0-.14,0-.2s.15-.26.22-.38a5.93,5.93,0,0,1,.4-.62,1.89,1.89,0,0,0,.29-.68,4.67,4.67,0,0,0,.06-.6c-.25.5-.44,1-.66,1.43s-.49.89-.75,1.36C42.36,30.88,42.31,30.53,42.56,30.62ZM15,27.72l.2.72h-.09c0,.07.09.12.14.12.22,0,.21.1.17.26l-.31-.13,0,.06.36.25a.38.38,0,0,0-.05-.54.66.66,0,0,1-.07-.26c0-.06,0-.12,0-.18s-.08-.16-.13-.28ZM26.26,37.83a.8.8,0,0,1,.14.66A.37.37,0,0,1,27,38.4c-.12-.21,0-.54-.39-.43C26.58,37.73,26.58,37.73,26.26,37.83Zm17.65-14a2.1,2.1,0,0,0-.13,1.21C43.88,24.66,44.13,24.32,43.91,23.86ZM28.39,39.56l.08-.08a2.87,2.87,0,0,0-.29-.31c-.11-.1-.23-.19-.05-.39-.2.06-.25.18-.23.31s.08.13.13.19l.14.12Zm.63.95-.06,0c0,.06,0,.14.05.17s.35.21.59.34l-.07-.41C29.31,40.7,29.14,40.7,29,40.51Zm-2.57-1.79a1.68,1.68,0,0,0,.26.27,2.22,2.22,0,0,0,.38.18v-.05l-.48-.55Zm8.18,1.35a2.26,2.26,0,0,0-.22.44c0,.07.05.17.07.26l.33-.57ZM44,19.49c-.18.18,0,.39-.07.57s.06.11.1.16.08,0,.09,0a.43.43,0,0,0,0-.19C44.07,19.84,44,19.68,44,19.49Zm1.17,3.64a1,1,0,0,0,.12-.91C45,22.5,45.18,22.8,45.12,23.13Zm-5,9.67.34-.07s.06,0,.07-.06l.12-.4h.06l-.12-.1ZM33.3,40.44l.12-.12s0-.09.08-.14-.16,0-.18,0-.19.3-.31.49l.46-.15ZM19.54,33.88l.07.06c0-.27.18-.14.23-.19a1.4,1.4,0,0,0-.15-.24.15.15,0,0,0-.13,0,3.53,3.53,0,0,0-.32.21v0l.31-.06Zm25.9-12.54-.23-.12-.05.05.15.57h.06Zm-.13-1.47c0-.1-.15-.25-.12-.3s0-.24-.06-.37c-.23.27-.06.47.07.67ZM20.69,35.23c-.12.32.08.53.43.51Zm19.17-4.12h-.1a1.52,1.52,0,0,0-.09.28s.14.12.17.1a.26.26,0,0,0,.15-.18C40,31.25,39.9,31.18,39.86,31.11Zm1.64-3.29h.06v-.26l.25-.12-.08-.21C41.41,27.52,41.39,27.57,41.5,27.82ZM27.06,38.28a2.7,2.7,0,0,0,.09.38s.09.06.1.05a2.44,2.44,0,0,0,.14-.28Zm-2.45-2.21,0,.35a.8.8,0,0,1,.15,0l.15.08C24.94,36.34,24.75,36.08,24.61,36.07ZM16.15,22.91c.21-.15,0-.18,0-.24a1.91,1.91,0,0,0,.14-.21s-.06-.1-.06-.1l-.25.15Zm26.42,1.91.07,0a2,2,0,0,0,.21-.3s-.07-.13-.1-.19l-.07,0ZM25.77,37.46s.06,0,.08,0l.18-.13-.15-.09a1,1,0,0,1-.09-.13l-.13-.18ZM17.08,16.8l-.34,0,.23.35.06,0Zm25.63,7.46h.07c.13-.31.15-.59,0-.66ZM34.53,39.73h.15l.21,0c0-.05-.07-.09-.1-.15a.94.94,0,0,1,0-.21ZM31.8,42l.22.14.12-.31h-.28ZM27,38.17l.51-.09C27.37,37.93,27.2,38,27,38.17ZM18.7,29.42c-.06.11-.14.18-.12.22a.93.93,0,0,0,.18.26l.07,0ZM33.47,41.57l-.5.14s0,.09.08.11A.52.52,0,0,0,33.47,41.57Zm5.42-8.64L39,33a.33.33,0,0,0,0-.43H39ZM24.58,35.18h0l-.11.37h.27Zm14.29-1.92L38.76,33l-.27.43ZM21.76,14.68l.11-.39,0,0-.27.3Zm5.81,24-.08.05c.13,0,0,.29.23.25.05,0,.1-.1.14-.16l-.05,0-.14.06ZM43.06,20l.1,0,.07-.28-.18,0Zm1.18,1.32L44.17,21C43.92,21.21,43.92,21.22,44.24,21.32ZM21.36,36.39l.1,0V36.1l-.18,0Zm4.33,1.82.44,0C25.94,38,25.83,38,25.69,38.21Zm-5.45-3.27,0,0,.33.3,0-.27Zm21.09-5.78,0-.05a.54.54,0,0,0-.25,0s-.06.13-.09.2h0Zm-1.84,4.13h0l.24-.3-.14-.15ZM28.12,16.73c-.05-.09-.08-.19-.11-.19a2.6,2.6,0,0,0-.39.05v0Zm-7.9,14.88L20,31.35l-.05,0,.22.36Zm-1.29,1.75.41-.19A.32.32,0,0,0,18.93,33.36Zm5.09,5v-.28l-.3.06ZM16.67,30.5c.1-.23.06-.28-.2-.27Zm28.65-9.33.2-.1-.19-.19.05,0ZM29.76,40l-.19,0,0,.06.27.1.06-.26-.07,0ZM14.4,24.09h.06c.09-.12.07-.22-.11-.33Zm5.38-9h.1a2,2,0,0,0,0-.25s-.05,0-.08,0Z"/><path d="M17.9,17l0-.35h0L17.8,17l-.23-.17c.1-.12,0-.3.19-.38,0,0,0-.19,0-.28l-.23-.09V16a.45.45,0,0,1,.19-.05c.35.08.36.07.47-.23,0,0,0,0,0,0-.19-.09-.18-.1-.05-.25a5.08,5.08,0,0,0,.37-.52.55.55,0,0,1,.08.15s0,.15,0,.15c-.24,0-.28.19-.26.39.24-.06.49-.21.77,0,0-.17,0-.32-.21-.36a.26.26,0,0,1-.2-.32c0-.13.18-.2.34-.22,0,0,0,.06,0,.07-.18.17-.18.17,0,.34a.94.94,0,0,0,.1.1.32.32,0,0,1,.15.44,1,1,0,0,0,0,.4l-.19-.14A.29.29,0,0,1,19,16l-.1.15c0-.05,0-.1-.05-.15a.5.5,0,0,0-.1-.19c0,.16,0,.3-.22.22l.09-.18c-.17,0-.19,0-.23.25l.15.05Zm.16-.45.14-.33C18,16.39,18,16.39,18.06,16.51Z"/><path d="M14.33,27l.18-.11c.27.37.27.37.14.51a3.35,3.35,0,0,1-.37-.2s0-.08-.08-.12-.2-.29,0-.45a.67.67,0,0,1,.17-.08.85.85,0,0,1,.08.24c0,.07-.09.13-.13.19Z"/><path d="M14.13,21.24l.07-.48-.11,0,0-.43c.39.17.37.47.26.78,0,.06-.12.1-.18.16Z"/><path d="M15,19.07S15,19,15,19c-.2-.2-.08-.39.05-.63.11.15.26.28.27.42a.26.26,0,0,1-.32.27Z"/><path d="M23.57,38.44l-.22.1c0-.07,0-.14,0-.2s0-.11-.07-.14l-.49-.31c.11-.19.16-.21.25-.07a.78.78,0,0,0,.42.32C23.49,38.17,23.51,38.32,23.57,38.44Z"/><path d="M38.51,37.52a.78.78,0,0,1-.2.16.22.22,0,0,1-.16,0s0-.12,0-.16a4.06,4.06,0,0,1,.26-.36s.07,0,.13-.06Z"/><path d="M36,39.6a2.8,2.8,0,0,1,.15-.3s.11,0,.16,0a.77.77,0,0,1,0,.15s0,.05,0,.1l.16-.11c0,.21,0,.24-.19.21A1,1,0,0,0,36,39.6Z"/><path d="M37.15,38.63l.36-.25a.32.32,0,0,1-.2.43Z"/><path d="M36.78,39l.17-.32.15.23c-.15,0-.22.12-.17.28l-.15-.2Z"/><path d="M39.1,36.51l.1.25a.39.39,0,0,0-.15,0,1.55,1.55,0,0,0-.22.12l0,0Z"/><path d="M23.18,38.61c-.1-.12-.32-.12-.22-.33l.31.1Z"/><path d="M16.55,16.82a1.05,1.05,0,0,1-.21.16s-.1-.07-.1-.08a.37.37,0,0,1,.13-.17S16.46,16.77,16.55,16.82Z"/><path d="M19.73,35.17c-.05.19-.16.2-.35.07C19.47,35,19.6,35.14,19.73,35.17Z"/><path d="M36.37,39.78,36,40C36,39.76,36.14,39.69,36.37,39.78Z"/><path d="M24.22,13.69c-.06-.11-.13-.2-.11-.23a.39.39,0,0,1,.25-.14Z"/><path d="M22.74,37.86l-.22,0-.16,0C22.53,37.56,22.55,37.57,22.74,37.86Z"/><path d="M22,13.72l0,0c.06,0,.08-.21.2-.1s0,.13,0,.18-.14,0-.2-.06Z"/><path d="M31,43.15h.36a.23.23,0,0,1-.27.16S31,43.21,31,43.15Z"/><path d="M37.53,38.19c0-.2.07-.24.18-.22s.07.05.1.07Z"/><path d="M19.49,15.64c.08.19.06.23-.17.28.05-.11,0-.27.18-.28Z"/><path d="M36.78,39a.81.81,0,0,1,0,.16s-.1,0-.11,0a.67.67,0,0,1,0-.32l.16.15Z"/><path d="M40.33,17c-.27-.32-.73-.53-.85-1a.38.38,0,0,1,.41.38l.29-.16-.09.24a.55.55,0,0,0,.46.27c.06,0,.14.06.16.11s.07.35.13.52.11.1.19.18-.08.08-.13.08-.33-.27-.29-.41a.3.3,0,0,0-.06-.2S40.44,17,40.33,17Z"/><path d="M41.44,18l.25,0q.14.13.27.3s0,.06,0,.07,0,.27.05.4,0,.07,0,.09c-.19.29.08.14.17.17l-.14.29-.31.09c0-.2,0-.39,0-.58a.88.88,0,0,0-.1-.22l-.15-.28-.08.1c-.12-.09-.18-.17,0-.28s0-.09.07-.14Z"/><path d="M42.13,20.12c-.07,0-.07,0-.08-.52l.13-.18s0,0,.07,0,.08,0,.08.07a.82.82,0,0,1,0,.35c-.1.25-.1.27.15.32a0,0,0,0,1,0,0l-.22.29c-.12.13-.16,0-.2-.1S42.11,20.2,42.13,20.12Z"/><path d="M42.67,20.65c-.05.1-.1.19-.14.29a.29.29,0,0,0,0,.13c0,.25,0,.32-.35.46l0-.42c.08-.15.15-.28.23-.4a1.26,1.26,0,0,1,.17-.13Z"/><path d="M42.49,22.11c-.34,0-.19-.31-.31-.45l0,0,.28.11-.14-.21a.8.8,0,0,1,.24.05s0,.11,0,.16S42.53,22,42.49,22.11Z"/><path d="M41.45,18l-.14,0-.15.07c0-.19,0-.36,0-.53,0,0,.09-.05.12,0a.81.81,0,0,1,.13.47Z"/><path d="M30.33,39.47l.29.24,0,0C30.29,39.64,30.29,39.64,30.33,39.47Z"/><path d="M26.43,36.76l-.05-.32c.07,0,.13.06.14.09a1,1,0,0,1,0,.24Z"/></g><path class="cls-3" d="M58.33,39.43h0V40.8c0,.15,0,.29,0,.44h0c-.62.31-14.92,7.43-29.28,10.88a57.14,57.14,0,0,1-13.41,1.55h0l.7-.1,1.13-.2,1.17-.26.6-.16.57-.16.57-.17.57-.18.46-.16.12,0,.52-.19.54-.22c.32-.12.63-.25.94-.39a33.83,33.83,0,0,0,3.29-1.68l.6-.36.4-.25.53-.34.44-.29.62-.43.32-.24q.94-.68,1.8-1.38l.37-.3.39-.33c1.16-1,2.23-2,3.2-3l.12-.12c1.89-1.95,6-6.28,8.23-8.91C44.5,33,45,32.38,45.28,32h0a9.7,9.7,0,0,1,1.63,1.1c3.26,2.57,8.52,8.06,10.59,7.51C57.92,40.5,58.22,40.13,58.33,39.43Z"/></g></g></svg>