<svg xmlns="http://www.w3.org/2000/svg" viewBox="0 0 222.91 149.88"><defs><style>.cls-1{fill:#ffdc25;}.cls-2{fill:#c9a718;}.cls-3{fill:#edc10a;}</style></defs><g id="Layer_2" data-name="Layer 2"><g id="Layer_1-2" data-name="Layer 1"><path class="cls-1" d="M67.92,95.53c0-.38,0-.76,0-1.14V95.5Z"/><polygon class="cls-2" points="138.41 0 56.44 0 22.48 0 22.48 0 22.48 33.96 22.48 115.92 22.48 149.88 22.48 149.88 56.44 149.88 138.41 149.88 172.37 149.88 172.37 149.88 172.37 115.92 172.37 33.96 172.37 0 172.37 0 138.41 0"/><path class="cls-1" d="M172.31,106c0-.37,0-.75,0-1.14V106Z"/><path class="cls-1" d="M172.37,101.07a1.94,1.94,0,0,1,0,.24v-2.7s0,.09,0,.24A19.82,19.82,0,0,1,172.37,101.07Z"/><path class="cls-1" d="M22.47,0h0V104a34,34,0,0,0,34,34H62.6a147.52,147.52,0,0,0,34.47-4c36.9-8.88,73.65-27.17,75.23-28h0c0-.37,0-.75,0-1.14s0-.58,0-.87V0H22.47Z"/><path class="cls-3" d="M172.35,101.32h0v3.51c0,.39,0,.77,0,1.14h0c-1.58.8-38.33,19.09-75.23,28a147.52,147.52,0,0,1-34.47,4h0c.62-.08,1.22-.17,1.82-.27,1-.15,1.94-.32,2.9-.52s2-.42,3-.67q.78-.18,1.53-.39c.5-.13,1-.26,1.48-.41s1-.29,1.46-.44,1-.3,1.45-.47.81-.27,1.2-.41l.3-.11,1.33-.49c.47-.17.93-.35,1.39-.54q1.23-.49,2.43-1a81.61,81.61,0,0,0,8.44-4.33c.52-.3,1-.61,1.54-.92l1-.64c.46-.28.91-.57,1.36-.87l1.13-.75c.54-.37,1.07-.73,1.59-1.1.29-.2.57-.4.84-.61q2.4-1.72,4.62-3.54c.32-.26.64-.51,1-.78s.67-.56,1-.84c3-2.55,5.73-5.15,8.23-7.72l.29-.3c4.86-5,15.29-16.14,21.16-22.91,1.75-2,3.1-3.66,3.78-4.62h0A25.71,25.71,0,0,1,143,85.07c8.39,6.61,21.89,20.73,27.21,19.3C171.32,104.08,172.07,103.13,172.35,101.32Z"/><path d="M0,56.54H16.19L30.57,76.45h.16V56.54H44.3v35.9H28.76L13.68,72.33h-.1V92.44H0Z"/><path d="M69.64,63.83C83.83,63.83,90,68.55,90,78.66S83.83,93.55,69.64,93.55,49.28,88.82,49.28,78.66,55.46,63.83,69.64,63.83Zm0,21.57c5.08,0,7.2-2.31,7.2-6.74S74.72,72,69.64,72s-7.19,2.37-7.19,6.69S64.62,85.4,69.64,85.4Z"/><path d="M92,64.93H97.8V56.08h12.57v8.85h6.79v7.85h-6.79v9.7c0,2.57,1.06,2.72,3.78,2.72,1,0,2.16,0,3.37-.1v7.34a67.1,67.1,0,0,1-9.16.6c-7.64,0-10.56-1.46-10.56-9V72.78H92Z"/><path d="M121.54,55.28h12.57v6.94H121.54Zm0,9.65h12.57V92.44H121.54Z"/><path d="M166.29,76a4,4,0,0,0-2.36-3.47,10.47,10.47,0,0,0-4.53-.86c-5.63,0-7.59,3.12-7.59,6.79,0,4.22,2.51,6.94,7.49,6.94,3.52,0,6.14-1,7-4.58h13.17c-1.3,11.42-11.56,12.73-20.21,12.73-11.57,0-20.62-3.52-20.62-14.94,0-11.26,9.05-14.78,20.62-14.78,11.82,0,18.86,3,20.21,12.17Z"/><path d="M222.76,84.19A11.89,11.89,0,0,1,216.47,91c-3.21,1.61-7.54,2.52-13.32,2.52-13.23,0-20.77-4.83-20.77-14.89,0-9.5,7.24-14.83,19.61-14.83,12.17,0,21.12,4.07,20.92,17.8H195.25c0,2,2.07,5,7.6,5,3.27,0,5.18-.71,6.53-2.42Zm-12.52-8.9c-.25-3-3.12-4.82-7.44-4.82s-6.89,1.35-7.55,4.82Z"/><path class="cls-3" d="M172.35,101.32h0v3.51c0,.39,0,.77,0,1.14h0c-1.58.8-38.33,19.09-75.23,28a147.52,147.52,0,0,1-34.47,4h0c.62-.08,1.22-.17,1.82-.27,1-.15,1.94-.32,2.9-.52s2-.42,3-.67q.78-.18,1.53-.39c.5-.13,1-.26,1.48-.41s1-.29,1.46-.44,1-.3,1.45-.47.81-.27,1.2-.41l.3-.11,1.33-.49c.47-.17.93-.35,1.39-.54q1.23-.49,2.43-1a81.61,81.61,0,0,0,8.44-4.33c.52-.3,1-.61,1.54-.92l1-.64c.46-.28.91-.57,1.36-.87l1.13-.75c.54-.37,1.07-.73,1.59-1.1.29-.2.57-.4.84-.61q2.4-1.72,4.62-3.54c.32-.26.64-.51,1-.78s.67-.56,1-.84c3-2.55,5.73-5.15,8.23-7.72l.29-.3c4.86-5,15.29-16.14,21.16-22.91,1.75-2,3.1-3.66,3.78-4.62h0A25.71,25.71,0,0,1,143,85.07c8.39,6.61,21.89,20.73,27.21,19.3C171.32,104.08,172.07,103.13,172.35,101.32Z"/></g></g></svg>