<?xml version="1.0" encoding="UTF-8"?>
<svg xmlns="http://www.w3.org/2000/svg" xmlns:xlink="http://www.w3.org/1999/xlink" viewBox="0 0 80 80" width="80px" height="80px">
<g id="surface29528746">
<path style=" stroke:none;fill-rule:nonzero;fill:rgb(80.000001%,80.000001%,80.000001%);fill-opacity:1;" d="M 40 77.5 C 19.300781 77.5 2.5 60.699219 2.5 40 C 2.5 19.300781 19.300781 2.5 40 2.5 C 60.699219 2.5 77.5 19.300781 77.5 40 C 77.5 60.699219 60.699219 77.5 40 77.5 Z M 40 77.5 "/>
<path style=" stroke:none;fill-rule:nonzero;fill:rgb(100%,100%,100%);fill-opacity:1;" d="M 40 3 C 60.398438 3 77 19.601562 77 40 C 77 60.398438 60.398438 77 40 77 C 19.601562 77 3 60.398438 3 40 C 3 19.601562 19.601562 3 40 3 M 40 2 C 19 2 2 19 2 40 C 2 61 19 78 40 78 C 61 78 78 61 78 40 C 78 19 61 2 40 2 Z M 40 2 "/>
<path style=" stroke:none;fill-rule:nonzero;fill:rgb(0%,0%,0%);fill-opacity:1;" d="M 34 56 L 20.199219 42.199219 L 24.5 38 L 34 47.601562 L 58.199219 23.398438 L 62.5 27.601562 Z M 34 56 "/>
</g>
</svg>
